HIERARCHY
ROOT Hips
{
	OFFSET 0.000000 0.000000 0.000000
	CHANNELS 6 Xposition Yposition Zposition Zrotation Yrotation Xrotation 
	JOINT LHipJoint
	{
		OFFSET 0.000000 0.000000 0.000000
		CHANNELS 3 Zrotation Yrotation Xrotation
		JOINT LeftUpLeg
		{
			OFFSET 1.363060 -1.794630 0.839290
			CHANNELS 3 Zrotation Yrotation Xrotation
			JOINT LeftLeg
			{
				OFFSET 2.448110 -6.726130 0.000000
				CHANNELS 3 Zrotation Yrotation Xrotation
				JOINT LeftFoot
				{
					OFFSET 2.562200 -7.039590 0.000000
					CHANNELS 3 Zrotation Yrotation Xrotation
					JOINT LeftToeBase
					{
						OFFSET 0.157640 -0.433110 2.322550
						CHANNELS 3 Zrotation Yrotation Xrotation
						End Site
						{
							OFFSET 0.000000 0.000000 0.000000
						}
					}
				}
			}
		}
	}
	JOINT RHipJoint
	{
		OFFSET 0.000000 0.000000 0.000000
		CHANNELS 3 Zrotation Yrotation Xrotation
		JOINT RightUpLeg
		{
			OFFSET -1.305520 -1.794630 0.839290
			CHANNELS 3 Zrotation Yrotation Xrotation
			JOINT RightLeg
			{
				OFFSET -2.542530 -6.985550 0.000000
				CHANNELS 3 Zrotation Yrotation Xrotation
				JOINT RightFoot
				{
					OFFSET -2.568260 -7.056230 0.000000
					CHANNELS 3 Zrotation Yrotation Xrotation
					JOINT RightToeBase
					{
						OFFSET -0.164730 -0.452590 2.363150
						CHANNELS 3 Zrotation Yrotation Xrotation
						End Site
						{
							OFFSET 0.000000 0.000000 0.000000
						}
					}
				}
			}
		}
	}
}
MOTION
Frames: 11
Frame Time: 0.008333
14.821778 15.159891 1.990901 -35.151487 -87.804229 84.862575 -8.510171 -1.802171 2.642173 -9.520135 -11.283637 -94.873743 -1.519130 4.695858 53.404681 0.318167 -0.810693 -7.091095 0.166300 0.000000 -34.644600 7.901374 0.023877 3.249589 11.710224 9.895782 -96.934106 2.039634 -6.620555 53.438351 1.217031 5.862635 2.185790 0.736800 0.000001 -66.620600
14.665647 14.850659 1.962338 -27.640932 -87.808937 76.708313 -8.441995 -2.058216 2.494415 -9.162163 -11.878844 -96.066887 -1.082631 5.055716 59.124875 0.773949 0.039659 -12.626122 -0.039900 -0.000001 -29.620500 7.713638 0.397712 3.003988 11.087732 9.851866 -97.927023 1.524683 -6.910422 58.696202 0.909537 5.557871 -3.321060 0.385900 -0.000000 -63.001300
14.519050 14.552951 1.932576 -21.075704 -87.746309 69.627065 -8.382058 -2.328203 2.333860 -8.774273 -12.473333 -97.425088 -0.618979 5.413438 64.684105 1.224756 0.988675 -17.427192 -0.383700 0.000000 -25.809500 7.556789 0.818593 2.770717 10.440604 9.915571 -99.078802 0.990845 -7.178806 63.928202 0.546007 5.049095 -8.386741 0.126100 0.000000 -59.510300
14.382342 14.271560 1.902099 -15.719547 -87.627539 63.896110 -8.330416 -2.617071 2.159008 -8.349445 -13.045977 -98.927839 -0.117342 5.763139 69.984653 1.636044 2.013172 -21.318326 -0.815200 -0.000000 -23.629100 7.431976 1.259051 2.550751 9.782170 10.089305 -100.364725 0.429052 -7.427487 69.001659 0.145453 4.290274 -12.783628 -0.008500 0.000000 -56.640700
14.255257 14.010692 1.871409 -11.571102 -87.473490 59.517429 -8.286993 -2.925385 1.968349 -7.887054 -13.572998 -100.536434 0.422411 6.097342 74.946058 1.980535 3.063904 -24.235368 -1.272700 -0.000000 -23.029200 7.331560 1.697904 2.340392 9.123966 10.362703 -101.745549 -0.163387 -7.654109 73.810954 -0.267307 3.281396 -16.388164 -0.002100 0.000000 -54.566600
14.137150 13.773659 1.840915 -8.476941 -87.306919 56.334746 -8.250277 -3.247827 1.761438 -7.391388 -14.031395 -102.201627 0.991817 6.407990 79.494262 2.240760 4.079361 -26.174149 -1.690800 0.000000 -23.965100 7.245267 2.120176 2.136275 8.474362 10.720339 -103.174166 -0.781451 -7.851712 78.257266 -0.669014 2.048182 -19.126015 0.133900 0.000000 -53.634300
14.027093 13.562911 1.810972 -6.210357 -87.145866 54.108920 -8.217385 -3.574613 1.538922 -6.874742 -14.402806 -103.863379 1.573357 6.688428 83.571173 2.411905 4.991727 -27.220538 -2.015800 0.000000 -26.075700 7.163908 2.516279 1.934323 7.844629 11.137859 -104.596156 -1.408472 -8.014347 82.268163 -1.040544 0.662792 -21.028959 0.361500 0.000000 -53.698999
13.923688 13.379660 1.781865 -4.549826 -87.002295 52.605677 -8.185712 -3.893677 1.303921 -6.354995 -14.676375 -105.459090 2.143938 6.934140 87.134013 2.500079 5.743060 -27.521855 -2.216400 -0.000000 -28.954800 7.082038 2.878648 1.732678 7.248359 11.588265 -105.957074 -2.020470 -8.138816 85.790214 -1.369871 -0.781644 -22.195574 0.629300 -0.000000 -54.522000
13.825466 13.224066 1.753774 -3.299700 -86.881835 51.614486 -8.153925 -4.192533 1.062092 -5.854219 -14.850751 -106.928913 2.677258 7.143551 90.158063 2.519600 6.293543 -27.281240 -2.291500 0.000000 -32.131000 6.998216 3.201065 1.532119 6.700536 12.044793 -107.208457 -2.590111 -8.226204 88.791972 -1.651544 -2.184649 -22.783614 0.889400 -0.000000 -55.770600
13.730793 13.095143 1.726839 -2.282879 -86.785325 50.945678 -8.122498 -4.458962 0.821599 -5.397502 -14.935948 -108.222149 3.147124 7.318342 92.639814 2.489823 6.627013 -26.744486 -2.268400 0.000000 -35.070800 6.914879 3.478686 1.336179 6.216283 12.482514 -108.310782 -3.091331 -8.281910 91.266122 -1.884958 -3.452845 -22.994241 1.111300 -0.000000 -57.082900
13.638142 12.991234 1.701074 -1.383334 -86.710067 50.469514 -8.093765 -4.683545 0.591201 -5.007264 -14.946308 -109.298063 3.532293 7.461745 94.589816 2.429613 6.752462 -26.139051 -2.187200 -0.000000 -37.562000 6.836478 3.707562 1.149994 5.810261 12.883621 -109.235013 -3.504572 -8.313237 93.224691 -2.073908 -4.523849 -23.028163 1.287600 -0.000000 -58.231100
